<svg version="1" xmlns="http://www.w3.org/2000/svg" width="400" height="400" viewBox="0 0 300.000000 300.000000"><path d="M96.5 5c-3.1 1.6-6.7 3-7.9 3-10.3.1-23 16.4-24.3 31.1-.7 7.1 1.2 27 3.3 34.5 1 3.7 2.5 6.1 5.4 8.8 2.2 2 4.5 3.6 5 3.6 1.1 0 1.3 5.2.4 8.7C78 96 77.2 97 76.6 97c-.7 0-2.8 1.2-4.7 2.6-1.9 1.4-9.3 6.1-16.6 10.5-8.8 5.3-14.7 9.6-17.9 13.2-5.3 5.8-10.6 16.4-12.3 24.5-1.6 7.8-1.3 28.3.6 37.7 1.2 6 1.8 16.2 2.2 40l.6 32-10 2.5c-8.6 2.2-10 2.9-10.3 4.8-.2 1.2.3 2.4 1.1 2.7.7.3 13-2.2 27.1-5.5 17.8-4.2 28.4-6.1 34-6.3 6.9-.3 9.1-.8 14.1-3.5 4.5-2.3 12.6-4.6 32-9 14.3-3.3 26.1-5.8 26.3-5.7.1.1-.2 1.3-.8 2.6-1 2.2-4.4 3.3-36.1 11.3L71 260.3v12.2l37.4 13.3 37.4 13.3 58.9-14.5c32.3-8 59.7-15 60.9-15.5 1.7-.7 3.9-8 14.1-46.1 6.7-24.9 11.9-45.8 11.7-46.5-.3-.6-2-1.9-3.9-2.8-3.4-1.6-4.7-1.4-55.1 7.8-28.4 5.2-52.1 9.2-52.5 8.9-1.3-.8-5.7-9.7-8.5-17-1.8-4.9-2.2-7.5-1.8-12.5.6-8.2.6-10.5 0-15.7-.6-5-1.2-6.2-3.2-6.2-.8 0-1.4-.9-1.4-2.2 0-1.2-.8-3.1-1.9-4.2-2.6-2.9-4-10-3.4-17.3l.5-6.1-3.8-1.1c-2.2-.6-5.8-1.1-8.1-1.1-5.4 0-12-2.6-12.8-5.1-.5-1.3.5-3.2 2.9-6.1 2-2.3 4.5-6.5 5.6-9.4 2.1-5.8 4-18.6 4-27.7 0-3.6.6-6.7 1.6-8.2 2.3-3.6 1-14.6-2.6-22.4C140.4 14.2 121.9 2 107.4 2c-3.8 0-6.7.8-10.9 3zM145 230.2c0 .5-.4.8-1 .8-.5 0-1-1-1-2.3 0-1.8.2-1.9 1-.7.5.8 1 1.8 1 2.2zM283.6 104.6c-.7 1.7.9 5.4 2.4 5.4 2.6 0 4-1.5 4-4.1 0-2.5-.4-2.9-2.9-2.9-1.7 0-3.1.6-3.5 1.6z"/><path d="M205.2 106.9c-.8.5-1.2 1.7-1 2.7.3 1.7 1.6 1.9 15.4 2.2 13.3.2 15.2.1 15.8-1.4 1.4-3.7-1-4.4-15.3-4.4-7.5 0-14.2.4-14.9.9zM239.2 106.9c-.8.5-1.2 1.7-1 2.7.3 1.7 1.5 1.9 12.1 2.2 9.8.2 11.8 0 12.3-1.3 1.4-3.5-1.4-4.5-12-4.5-5.5 0-10.7.4-11.4.9zM171 114c-1.4 2.7.4 5.2 3.4 4.8 3.1-.4 3-6.2-.1-6.6-1.4-.2-2.6.4-3.3 1.8zM270.1 129.6c-10.3 17.7-11.7 21.9-7.6 21.9 1.5 0 4.4-4.2 12.2-17.5 10.7-18.4 12-22 7.9-22-2 0-3.9 2.6-12.5 17.6zM176.4 120.5c-.9 2.2-.4 3.1 12.2 22.6 8 12.3 12.1 17.9 13.4 17.9 2.3 0 3.3-2.6 2-5-1.8-3.4-21.3-33.5-22.8-35.3-1.9-2.1-4.1-2.2-4.8-.2zM195.7 120.2c-.2.7 0 2.1.5 3 .8 1.6 2.5 1.8 14.7 1.8 11 0 14.1-.3 15.1-1.5.7-.8 1-2.2.6-3-.4-1.2-3.1-1.5-15.5-1.5-11 0-15.1.3-15.4 1.2zM231 121.4c0 3.1 1.5 3.6 10.8 3.6 8.5 0 10.6-.8 10-3.6-.3-1.7-1.5-1.9-10.6-2.2l-10.2-.3v2.5zM206.1 132.3c-.6.8-.8 2.2-.5 3.1.6 1.5 2.5 1.6 16.3 1.4l15.6-.3v-5l-15.1-.3c-12-.2-15.4 0-16.3 1.1zM239.4 132.5c-1.5 3.7.2 4.5 9.6 4.5 7.2 0 9.2-.3 9.6-1.5 1.3-3.3-1.5-4.5-10.3-4.5-6.5 0-8.5.3-8.9 1.5zM204 146.5c0 2.6 0 2.6 7.8 2.3 6.9-.3 7.7-.5 7.7-2.3 0-1.8-.8-2-7.7-2.3-7.8-.3-7.8-.3-7.8 2.3zM222.4 145.5c-1.4 3.5 1.4 4.5 13.1 4.5s14.5-1 13.1-4.5c-.4-1.2-2.8-1.5-13.1-1.5s-12.7.3-13.1 1.5zM284 146.9c-1.5 2.9-.2 5.1 3.1 5.1 2.5 0 2.9-.4 2.9-2.9 0-4.1-4.1-5.6-6-2.2zM267 159.1c-12.7 8.8-14.2 10.5-11.5 12.5 2.1 1.6.9 2.2 15.8-7.9 9.3-6.4 11.7-8.5 11.7-10.4 0-4-3.9-2.6-16 5.8zM176.7 154.7c-2 2 .2 4.6 10 11.7 10.7 7.7 14.4 9 15.1 5.4.2-1.2-2.9-4.2-10.5-9.7-10.2-7.6-13-9-14.6-7.4zM212 157.5c-.7.8-1 2.2-.6 3 .8 2.3 17.1 2.2 18-.1 1.2-3.2-1.3-4.4-8.9-4.4-5.2 0-7.6.4-8.5 1.5zM233 157.5c-.7.8-1 2.2-.6 3 .4 1.2 2.5 1.5 10.1 1.5s9.7-.3 10.1-1.5c1.3-3.3-1.5-4.5-10.1-4.5-6.1 0-8.6.4-9.5 1.5zM214.7 169.7c-1.3 1.2-.7 4.1.9 4.7 2 .8 25.8.8 27.8 0 .9-.3 1.6-1.7 1.6-3V169h-14.8c-8.2 0-15.2.3-15.5.7zM202.6 174.6c-.7 1.7.9 5.4 2.4 5.4 2.6 0 4-1.5 4-4.1 0-2.5-.4-2.9-2.9-2.9-1.7 0-3.1.6-3.5 1.6z"/></svg>